<svg width="309" height="311" viewBox="0 0 309 311" fill="none" xmlns="http://www.w3.org/2000/svg">
<path fill-rule="evenodd" clip-rule="evenodd" d="M155.081 11.2299C183.87 7.86423 215.181 -8.74716 240.118 6.0292C265.009 20.7788 264.654 56.5062 276.235 83.0206C287.582 108.999 315.819 133.166 307.485 160.262C298.904 188.159 254.43 185.963 237.304 209.596C217.365 237.112 232.325 285.451 203.607 303.615C176.577 320.711 140.614 300.857 110.637 289.712C82.33 279.187 55.8446 264.298 36.1903 241.369C16.6033 218.518 -0.372716 190.741 0.00622488 160.646C0.369329 131.81 23.2893 109.663 38.1599 84.9539C51.2501 63.2027 60.4544 38.0627 81.9283 24.5225C103.326 11.0305 129.956 14.1671 155.081 11.2299Z" fill="white"/>
</svg>
